<svg xmlns="http://www.w3.org/2000/svg" viewBox="0 0 32 32" width="32" height="32">
  <circle cx="16" cy="16" r="16" fill="#FF007A"/>
  <path d="M18.21,13.89c-0.24-0.13-0.51-0.19-0.78-0.19c-0.57,0-1.11,0.28-1.44,0.76c-0.33,0.48-0.41,1.09-0.22,1.64c0.16,0.47,0.51,0.87,0.97,1.1
  c0.24,0.13,0.51,0.19,0.78,0.19c0.57,0,1.11-0.28,1.44-0.76c0.33-0.48,0.41-1.09,0.22-1.64C19.01,14.52,18.67,14.12,18.21,13.89z" fill="white"/>
  <path d="M11.98,18.45c-0.29-0.15-0.61-0.24-0.94-0.24c-0.78-0.01-1.5,0.42-1.85,1.11c-0.35,0.69-0.29,1.52,0.15,2.15
  c0.69,0.95,2.02,1.16,2.98,0.47c0.35-0.25,0.62-0.61,0.77-1.01c0.15-0.41,0.15-0.85,0-1.26C12.94,19.14,12.52,18.7,11.98,18.45z" fill="white"/>
  <path d="M22.51,11.02c-0.2-0.11-0.42-0.16-0.65-0.16c-0.48,0-0.92,0.23-1.2,0.63c-0.28,0.4-0.34,0.91-0.18,1.36
  c0.13,0.39,0.42,0.72,0.8,0.92c0.2,0.11,0.42,0.16,0.65,0.16c0.48,0,0.92-0.23,1.19-0.63c0.28-0.4,0.34-0.91,0.18-1.36
  C23.18,11.54,22.89,11.21,22.51,11.02z" fill="white"/>
  <path d="M8.81,11.77c-0.17-0.39-0.49-0.71-0.87-0.9c-0.19-0.1-0.4-0.15-0.61-0.15c-0.5,0-0.97,0.24-1.26,0.66c-0.3,0.42-0.36,0.95-0.19,1.43
  c0.17,0.39,0.49,0.71,0.87,0.9c0.19,0.1,0.4,0.15,0.61,0.15c0.5,0,0.97-0.24,1.26-0.66C8.91,12.77,8.97,12.24,8.81,11.77z" fill="white"/>
</svg>
