<svg xmlns="http://www.w3.org/2000/svg" viewBox="0 0 32 32" width="32" height="32">
  <circle cx="11" cy="16" r="10" fill="#627EEA"/>
  <path d="M11,6v7.36l6.2,-3.68l-6.2,-3.68z" fill="white" fill-opacity="0.8"/>
  <path d="M11,6l-6.2,3.68l6.2,3.68v-7.36z" fill="white"/>
  <path d="M11,26v-7.36l-6.2,-3.68l6.2,11.04z" fill="white"/>
  <path d="M11,18.64v7.36l6.2,-11.04l-6.2,3.68z" fill="white" fill-opacity="0.8"/>
  <circle cx="21" cy="16" r="10" fill="#2775CA"/>
  <path d="M21,12.95c-0.42,0,-0.83,0.04,-1.23,0.11v6.45h2.46v-6.45c-0.4,-0.07,-0.81,-0.11,-1.23,-0.11zM23.78,14.41v3.68h1.23v-3.68h-1.23zM16.99,14.41v3.68h1.23v-2.46h1.23v-1.23h-2.46z" fill="white"/>
</svg>
